<?xml version="1.0" encoding="utf-8"?>
<!-- Generator: Adobe Illustrator 27.2.0, SVG Export Plug-In . SVG Version: 6.00 Build 0)  -->
<svg version="1.1" id="圖層_1" xmlns="http://www.w3.org/2000/svg" xmlns:xlink="http://www.w3.org/1999/xlink" x="0px" y="0px"
	 viewBox="0 0 1326 387" style="enable-background:new 0 0 1326 387;" xml:space="preserve">
<style type="text/css">
	.st0{fill:none;}
	.st1{fill:none;stroke:#0E382C;}
	.st2{fill:#0E382C;}
	.st3{fill:#DFA479;}
	.st4{fill:#3B2C3E;}
	.st5{fill:none;stroke:#213A33;stroke-width:1.39;stroke-linecap:round;stroke-miterlimit:10;}
	.st6{fill:#FFFFFF;}
	.st7{fill:#D8A43D;}
	.st8{fill:#00693B;}
	.st9{fill:#D6D4D3;}
	.st10{fill:#E8E9E9;}
	.st11{fill:#006241;}
</style>
<g id="banner_pc_mobile-order-pay" transform="translate(-683 -141)">
	<g id="Group_7368" transform="translate(38)">
		<g id="banner_pc_mobile-order-pay_text-block" transform="translate(-128.31)">
			<g id="text-block" transform="translate(1313 64.164)">
				<g id="btn-more" transform="translate(269 335.178)">
					<g id="Rectangle_46" transform="translate(1.33 4.086)">
						<path class="st0" d="M13.6,0h58.9C80,0,86.1,6.1,86.1,13.6l0,0c0,7.5-6.1,13.6-13.6,13.6H13.6C6.1,27.3,0,21.2,0,13.6l0,0
							C0,6.1,6.1,0,13.6,0z"/>
						<path class="st1" d="M13.6,0.5h58.9c7.3,0,13.1,5.9,13.1,13.1l0,0c0,7.3-5.9,13.1-13.1,13.1H13.6c-7.3,0-13.1-5.9-13.1-13.1
							l0,0C0.5,6.4,6.4,0.5,13.6,0.5z"/>
					</g>
					<path id="Path_49563" class="st2" d="M27.4,12L27,12.1h-9.7v1.6h8.1c-1,0.9-2.1,1.7-3.2,2.3v6.2c0,0.2-0.1,0.3-0.4,0.3
						s-1.5,0-2.5,0c0.3,0.5,0.5,1.1,0.7,1.7c1,0.1,2,0,3-0.3c0.7-0.3,0.9-0.7,0.9-1.7v-5.4c1.8-1.1,3.4-2.4,4.8-3.9L27.4,12z
						 M36.8,15.9c0.3,0.3,0.5,0.6,0.7,1c0.1,0,0.2-0.1,0.3-0.1c-0.1,1-0.5,1.9-1,2.7V15.9z M34.6,19.3v-1.2h0.8v1.2H34.6z
						 M32.7,18.2h0.8v1.2h-0.8c0-0.3,0-0.6,0-0.9V18.2z M34.2,13.7c-0.1,0.4-0.3,0.7-0.4,1h-1.2c0.2-0.3,0.3-0.7,0.5-1H34.2z
						 M34.6,15.9h0.8v1h-0.8V15.9z M32.7,15.9h0.8v1h-0.8V15.9z M43.6,20.4h-2.4v-1.3h2.1v-1.4h-2.1v-1.3h-1.6v1.3h-0.7
						c0.1-0.3,0.1-0.6,0.2-0.9l-1.2-0.3c1.3-0.7,2.1-2,2.2-3.4h1.6c0,0.6,0,1.2-0.3,1.8c-0.1,0.1-0.2,0.2-0.4,0.2s-0.6,0-1-0.1
						c0.2,0.4,0.3,0.9,0.4,1.3c0.5,0,0.9,0,1.4,0c0.3,0,0.6-0.2,0.9-0.5c0.3-0.4,0.4-1.3,0.5-3.6c0-0.2,0-0.5,0-0.5H37v1.4h1.6
						c-0.1,1.1-0.8,2-1.8,2.4v-0.9h-1.6c0.3-0.6,0.5-1.2,0.8-1.8l-1-0.6l-0.2,0.1h-1.3c0.1-0.3,0.2-0.7,0.3-1L32.3,11
						c-0.3,1.6-1,3.1-2.1,4.3c0.4,0.3,0.8,0.6,1.1,0.9v2.1c0,1.6-0.1,3.7-1,5.1c0.4,0.2,0.8,0.4,1.1,0.7c0.6-1.1,1-2.4,1.1-3.7h2.8
						v2c0,0.2-0.1,0.2-0.2,0.2s-0.7,0-1.3,0c0.2,0.4,0.4,0.9,0.5,1.4c0.6,0.1,1.3,0,1.9-0.3c0.4-0.2,0.5-0.7,0.5-1.3v-3
						c0.4,0.2,0.7,0.4,1.1,0.6c0.2-0.3,0.4-0.7,0.6-1.1h1.2v1.3H37v1.4h2.6v2.3h1.6v-2.3h2.4V20.4z M48,20.5v1.6h-1.6v-1.6H48z
						 M49.4,19.2H45V24h1.4v-0.6h3V19.2z M45.1,18.5h4.2v-1.3h-4.2V18.5z M49.3,15.4h-4.2v1.3h4.2V15.4z M48.2,13
						c-0.3-0.6-0.6-1.3-1-1.9L46,11.7c0.3,0.6,0.6,1.2,0.9,1.8h-2.4v1.3h5.3v-1.3h-2.4L48.2,13z M57.5,19.9h-3v-1.5h2.4v-1.5h-2.4
						v-1.4h2.8V14h-1.5c0.4-0.6,0.9-1.4,1.4-2.1l-1.8-0.6c-0.3,0.8-0.7,1.6-1.1,2.4l0.8,0.3h-2.8l0.7-0.4c-0.3-0.8-0.8-1.6-1.3-2.3
						l-1.4,0.6c0.4,0.7,0.8,1.3,1.1,2.1H50v1.5h2.8v1.4h-2.4v1.5h2.4v1.5h-3v1.5h3v2.8h1.6v-2.8h3v-1.5H57.5z M59.6,18
						c0.3-1.3,0.6-2.6,0.7-3.9L59,13.9c-0.1,1.2-0.4,2.5-0.7,3.7L59.6,18z M65.1,21c0-0.2,0-0.4,0-0.6h4V21H65.1z M69.1,18.5v0.7
						h-3.9v-0.7H69.1z M70.7,17.3h-7.1v2.5c0.1,1.2-0.2,2.4-0.9,3.4c0.4,0.3,0.8,0.7,1.2,1.1c0.5-0.6,0.9-1.4,1-2.2h4.2v0.5
						c0,0.2-0.1,0.2-0.3,0.2s-0.8,0-1.4,0c0.2,0.5,0.4,0.9,0.4,1.4c0.7,0.1,1.5,0,2.1-0.2c0.5-0.2,0.7-0.6,0.7-1.3L70.7,17.3z
						 M67.9,15.6V15h2.6v-1.1h-2.6v-0.6H71v-1.2h-3.1v-1h-1.7v1h-3.1v1.2h3.1v0.6h-2.6V15h2.6v0.6h-3.4l0.8-0.4
						c-0.2-0.5-0.6-1.5-1-2.2L62,13.3v-2.2h-1.5v13.1H62v-9.9c0.2,0.5,0.4,1,0.6,1.5l0.3-0.2v1.2h8.6v-1.2L67.9,15.6z"/>
				</g>
				<g id="Group_3161" transform="translate(126.291 -85.347)">
					<path id="Path_39764" class="st2" d="M4.3,313.8l-3.1-3.7c2.8-3.3,4.9-7.2,6.2-11.3l4.2,0.9c-0.3,0.9-0.6,1.7-0.9,2.5h9.5v-2.9
						H25v2.9h14.3v4.2H25v3.2h12.7v4H25v3.2h16.4v4.2H2.9v-4.2h17.3v-3.2h-12v-4h12v-3.2H8.9C7.7,309.1,6.1,311.6,4.3,313.8
						 M36.7,298.3h-30v-16.8h30V298.3z M32,285.5H11.3v2.6H32V285.5z M32,291.7H11.3v2.6H32V291.7z"/>
					<path id="Path_39765" class="st2" d="M84,302.5H54.2v11.3c0,1.5,0.8,2.3,2.5,2.3H80c1,0,1.8-0.7,2.1-1.6c0.3-0.7,0.6-3.1,0.9-7
						l4.6,1.4c-0.2,2.6-0.6,5.1-1.2,7.7c-0.4,2.3-2.5,4-4.9,4.1H54.8c-3.6,0-5.4-1.6-5.4-4.9v-33.4H84V302.5z M54.2,298h10.2v-11.2
						H54.2V298z M79.4,286.8H69.2V298h10.2C79.4,298,79.4,286.8,79.4,286.8z"/>
					<path id="Path_39766" class="st2" d="M115.7,280.2v4.3h17.1v4.6h-17.1v3.7h12.1v14.1h-7.4v8.3c0,1,0.5,1.5,1.7,1.5h4.9
						c0.5,0,1.1-0.2,1.5-0.5c0.5-0.4,0.9-1.8,1-4.3l4.5,1.4c-0.5,3.9-1.1,6.2-1.9,6.8c-1.2,0.7-2.5,1.1-3.9,1.1h-7.4
						c-3.3,0-5-1.8-5-5.2v-9.2h-6.1c-0.5,4-1.6,6.9-3.2,8.9c-2.2,2.4-5.7,4.6-10.7,6.5l-3-3.9c4.4-1.4,7.5-2.9,9.3-4.8
						c1.6-1.9,2.6-4.2,2.8-6.6h-6.1v-14.1H111V289H93.7v-4.6h17.1v-4.3h4.9V280.2z M123.2,297.1h-19.9v5.3h19.9V297.1z"/>
					<path id="Path_39767" class="st2" d="M152.3,282.5c-2.4,4.9-6.5,9.4-12.3,13.4l-1.4-4.7c4-2.7,7.2-6.4,9.5-10.7L152.3,282.5z
						 M154.3,292.9c-1.2,2.4-2.7,4.7-4.5,6.8V322h-4.7v-17.7c-1.5,1.3-3.2,2.5-4.9,3.7l-1.4-4.6c4.7-3.2,8.6-7.5,11.2-12.5
						L154.3,292.9z M180,293.8v4.6h-7v18.9c0,3-1.7,4.5-5,4.5h-6.5l-1-4.6c2.1,0.2,4.1,0.3,6,0.3c1.2,0,1.9-0.5,1.9-1.4v-17.7h-13.5
						v-4.6L180,293.8L180,293.8z M178,287.3h-22.2v-4.6H178V287.3z"/>
					<path id="Path_39768" class="st2" d="M216.4,280.4v8.1h8.9c0,15.2-0.2,24.6-0.6,28.2c-0.5,3.3-2.5,5-6.1,5
						c-0.8,0-2.3-0.1-4.3-0.2l-1.1-4.1c1.8,0.1,3.4,0.2,4.7,0.2c1.4,0,2.3-1,2.5-2.9c0.3-2.1,0.4-9.3,0.5-21.8h-4.5v1.5
						c-0.1,12.6-2.8,21.8-8.1,27.6l-2.5-2.2c-6,0.7-12.8,1.3-20.3,1.8l-0.6-4.2c3.2-0.2,6.3-0.4,9.2-0.5v-2.8h-7.6v-3.8h7.6V308
						h-7.8v-14.6h7.8v-1.9h-8.7v-3.9h8.7v-2c-2.3,0.1-4.8,0.2-7.3,0.2l-1.3-3.7c6.4,0.1,12.9-0.5,19.2-1.8l2.1,3.5
						c-2.7,0.7-5.5,1.1-8.3,1.4v2.3h8.5v3.9h-8.5v1.9h7.9V308h-7.9v2.2h7.7v3.8h-7.7v2.5c2.7-0.3,5.3-0.5,7.6-0.8v2
						c3.9-5.2,5.9-13,6-23.3v-1.5h-3.9v-4.3h3.9v-8.1h4.3V280.4z M194.2,296.7h-3.8v2.4h3.8V296.7z M194.2,302.2h-3.8v2.3h3.8V302.2
						z M198.1,299.1h3.9v-2.4h-3.9V299.1z M202,302.2h-3.9v2.3h3.9V302.2z"/>
					<path id="Path_39769" class="st2" d="M239.2,290.8c1.4-1.6,2.6-3.2,3.7-5h-10.4v-4.1h15.2v3.5c-1.7,3-3.7,5.8-6,8.4
						c0.6,0.7,1.2,1.4,1.6,2h6.1v2.8c-0.5,2.8-1.3,5.6-2.4,8.3l-3.7-1.5c0.8-1.7,1.3-3.5,1.8-5.3h-3.5v17.5c0,2.8-1.4,4.3-4,4.3
						h-4.4l-0.9-4.2c1.3,0.2,2.6,0.3,3.8,0.3c0.7,0,1-0.5,1-1.4V300H231v-4.3h7.4c-1.6-1.9-3.6-3.8-5.7-5.9l3.4-2.2
						C237.2,288.7,238.3,289.8,239.2,290.8 M257.7,288.5c0.3-0.9,0.6-1.8,0.9-2.7h-8.8v-4.1h22.6v4.1h-9.1c-0.3,0.9-0.5,1.8-0.9,2.7
						h8.4v24.9h-4.9c2.6,1.5,5,3.3,7.3,5.3l-3,3c-2.2-2.3-4.7-4.3-7.4-5.9l2.5-2.4H257l2.7,2.3c-2.6,2.5-5.5,4.6-8.8,6.2l-2.6-3.3
						c2.9-1.3,5.6-3.1,8-5.2h-5v-24.9H257.7z M266.3,292.3h-10.6v3.2h10.6V292.3z M266.3,299.1h-10.6v3.4h10.6V299.1z M266.3,306.1
						h-10.6v3.5h10.6V306.1z"/>
					<path id="Path_39770" class="st2" d="M282.3,313c-0.1,3-0.5,6-1.3,9l-3.8-1.2c0.9-2.7,1.4-5.4,1.5-8.3L282.3,313z M285.9,300.8
						v-2.2h-7.4v-17h18.9v17H290v2.2h6.7v3.7H290v2.2h7.7v4.2h-19.6v-4.2h7.8v-2.2h-6.8v-3.7H285.9z M286.2,285.1h-4v2.3l2.3-0.7
						c0.7,2.1,1.2,4.3,1.6,6.5l-2.4,0.6c-0.4-2.1-0.9-4.1-1.4-6v7.3h4L286.2,285.1z M287.5,321l-3.8,0.5c0-3.5-0.1-6.3-0.3-8.2
						l3.4-0.5C287.2,315.6,287.5,318.3,287.5,321 M293.2,320.1l-3.7,0.9c-0.3-2.9-0.7-5.4-1.2-7.6l3.3-0.7
						C292.2,314.9,292.7,317.4,293.2,320.1 M293.7,285.1h-4.1v10h4.1V285.1z M293.4,287c-0.2,2.3-0.6,4.7-1.2,6.9l-2.4-0.9
						c0.6-2.2,0.9-4.5,1.1-6.8L293.4,287z M298.2,319l-3.3,1.2c-0.5-2.5-1.1-4.9-1.8-7.3l3.3-0.9C297.2,314.5,297.8,316.8,298.2,319
						 M310,280.5v7.9h9.1v4.3H310v6.9h7.3V322h-4.4v-2.1h-9.1v2.1h-4.4v-22.5h6v-19H310z M312.8,303.7h-9.1v11.9h9.1V303.7z"/>
					<path id="Path_39771" class="st2" d="M329.1,311.5h10.2v5.8h-15.8v-3.1c0-10.3,10.4-14.2,10.4-21.3c0-1.8-0.6-3.3-2.3-3.3
						c-1.8,0-2.6,1.5-2.7,5.1v0.7h-5.6V294c0-6.5,3.5-9.3,8.2-9.3c4.8,0,8.3,3.4,8.3,9C339.8,302.2,331.7,304.7,329.1,311.5"/>
					<path id="Path_39772" class="st2" d="M344.5,314.5c0-1.7,1.3-3.1,3.1-3.2c1.7,0,3.1,1.3,3.2,3.1c0,1.7-1.3,3.1-3.1,3.2l0,0
						c-1.6,0.1-3-1.1-3.1-2.7C344.5,314.7,344.5,314.6,344.5,314.5"/>
					<path id="Path_39773" class="st2" d="M373.2,301.3c0,13.9-3.7,16.7-8.7,16.7c-4.9,0-8.7-2.8-8.7-16.7c0-13.9,3.8-16.7,8.7-16.7
						C369.5,284.6,373.2,287.4,373.2,301.3 M361.9,301.3c0,10.8,0.9,12.1,2.6,12.1s2.5-1.3,2.5-12.1s-0.9-12.1-2.5-12.1
						C362.7,289.2,361.9,290.5,361.9,301.3"/>
				</g>
				<rect id="Rectangle_1842" x="127.7" y="256.8" class="st2" width="372" height="1"/>
				<path id="Path_51985" class="st2" d="M155.1,284.7h-2.3v-2.4h2.3V284.7z M158.5,279.6h-8.9v7.9h8.9V279.6z M144.9,284.7h-2.1
					v-2.4h2.1V284.7z M148.3,279.6h-8.7v7.9h8.7V279.6z M131.7,295.2c0-1.3,0.1-2.8,0.1-4.2h6.3v-11.3H128v3.7h6.3v3.9h-5.8
					c0,3.7-0.2,8.5-0.4,11.5h6.3c-0.2,4.8-0.6,6.8-1.1,7.3c-0.3,0.3-0.7,0.5-1.2,0.5c-0.7,0-2.1,0-3.5-0.2c0.7,1.2,1.1,2.6,1.2,4.1
					c1.4,0.1,2.7,0,4.1-0.1c1,0,2-0.5,2.6-1.4c1-1.2,1.4-4.4,1.8-12.1c0-0.5,0-1.6,0-1.6L131.7,295.2L131.7,295.2z M143.8,298.2
					v-1.8h3.3v1.8H143.8z M143.8,291.8h3.3v1.8h-3.3V291.8z M154.4,293.6h-3.5v-1.8h3.5V293.6z M154.4,298.2h-3.5v-1.8h3.5V298.2z
					 M159.9,302.8h-9v-1.6h7.2v-12.4h-18v12.4h6.9v1.6h-8.5v3.4h8.5v4.7h3.8v-4.7h9v-3.4H159.9z M187.3,305.8v-7h6.4v-3.9h-6.4v-5.7
					h7.1v-3.9h-7.1v-6.9h-4.2v6.9h-2.8c0.3-1.6,0.6-3.2,0.9-4.9l-4.1-0.6c-0.3,2.9-0.9,5.8-1.9,8.5c-0.6-1.5-1.2-3-1.9-4.4l-2,0.8
					v-6.6h-4.2v7.1l-2.9-0.4c-0.2,3.1-0.8,6.1-1.7,9.1l3.1,1.1c0.9-3,1.4-6.1,1.6-9.3v25h4.2V287c0.6,1.3,1,2.6,1.3,4l2-0.9
					c-0.3,0.7-0.7,1.4-1,2c1.3,0.6,2.5,1.2,3.7,1.9c0.8-1.5,1.5-3.2,2-4.8h3.8v5.7h-6.8v3.9h6.8v7h-9.3v4h21.8v-4L187.3,305.8
					L187.3,305.8z M206.2,280c-1.3,3-3.3,5.7-5.9,7.8c1.3,0.7,2.5,1.5,3.6,2.4c2.7-2.6,4.9-5.7,6.5-9.1L206.2,280z M222.9,297.4
					h-13.8v-1.5h13.8V297.4z M209.1,306.5v-1.7h13.8v1.7H209.1z M209.1,300.3h13.8v1.7h-13.8V300.3z M231.3,287.5
					c-2.2-2.9-4.7-5.6-7.6-7.8l-3.3,2c1.5,1.4,3,2.8,4.4,4.4l-3.6-1.6c-1.2,1.3-2.6,2.4-4.1,3.3v-9.5H213v11.5
					c-4.7,1.7-9.5,2.8-14.4,3.3c1,1.1,1.8,2.3,2.6,3.6c1.3-0.2,2.6-0.5,4-0.7v15h4v-1.3H223v1.1h4.2v-17.9h-11.8
					c3.7-1.4,7-3.6,9.7-6.4c1,1,1.9,2.2,2.6,3.4L231.3,287.5z M243,284v6.2h-3.2V284H243z M239.8,300.4v-6.6h3.2v6.6H239.8z
					 M246.9,280.3H236v26.9h3.8v-3.1h7.1L246.9,280.3L246.9,280.3z M248.9,301.2c1.5,1.9,2.8,3.8,4,5.9l3.6-2.1
					c-1.3-2-2.7-3.8-4.2-5.6L248.9,301.2z M267.3,285.6V282h-7.9v-3.7h-4.1v3.7h-7.9v3.6h7.9v3.3h-6.8v3.6h11.2v2.7h-12.3v3.6h12.2
					v7.5c0,0.5-0.2,0.6-0.7,0.6s-2.5,0-4.1-0.1c0.6,1.2,1,2.6,1.3,3.9c2.6,0,4.5-0.1,5.8-0.7c1.4-0.6,1.8-1.7,1.8-3.7v-7.6h3.4v-3.6
					h-3.4v-2.7h2.6v-3.6h-6.9v-3.3h7.9V285.6z M315.6,290.7h-7.8v-2.2h7.8V290.7z M315.6,295.7h-7.8v-2.2h7.8V295.7z M315.6,300.8
					h-7.8v-2.2h7.8V300.8z M301.4,299.6c0.8-2.1,1.7-5.4,2.5-8.3l-2.5-0.6l-0.6,0.1H299l0.9-1.3c-0.7-0.6-1.4-1.2-2.1-1.6
					c1.9-2,3.5-4.1,5-6.4v1.5h6.6c-0.1,0.8-0.2,1.5-0.4,2.3h-5v18.5h15.6v-18.5h-6.3c0.2-0.7,0.5-1.5,0.7-2.3h6.6v-3.5h-17.8v1.6
					l-2.4-1.8l-0.7,0.2H289v3.6h8.1c-0.7,1-1.4,2-2.2,2.8c-1.1-0.6-2.2-1.2-3.2-1.6l-2.1,2.7c2.1,1.1,4.1,2.3,6.1,3.7h-7.5v3.7h5.2
					v11.8c0,0.4-0.1,0.5-0.6,0.5s-2.1,0-3.6,0c0.6,1.3,1,2.6,1.3,4c2.3,0,4.1-0.1,5.4-0.7s1.6-1.7,1.6-3.7v-11.9h2.1
					c-0.4,1.6-0.8,3.3-1.2,4.4L301.4,299.6z M307.4,303.9c-2.1,1.9-4.6,3.4-7.3,4.3c1,0.8,1.9,1.7,2.8,2.7c2.9-1.1,5.6-2.8,7.9-4.9
					L307.4,303.9z M312.5,306.2c2,1.4,4,3,5.7,4.8l3.3-2.3c-1.9-1.6-3.9-3.1-6-4.5L312.5,306.2z M339.7,298.8
					c-0.6-2.5-1.4-5-2.3-7.5l-3.2,0.8c0.3,0.8,0.6,1.7,0.8,2.6l-3.9,0.6c2.9-3,5.4-6.2,7.7-9.7l-3.4-2.3c-0.8,1.5-1.8,3-2.7,4.4
					l-2.9,0.2c2-2.6,3.8-5.3,5.3-8.2l-3.8-1.6c-1.2,3-2.9,5.9-4.8,8.5c-0.5,0.8-1.3,1.5-2.2,1.9c0.5,1.2,0.9,2.4,1.3,3.6
					c1.4-0.5,2.9-0.8,4.4-0.8c-0.8,1-1.7,2-2.6,2.9c-1.2,1.3-2.1,2-3,2.2c0.5,1.1,1.1,3,1.3,3.8c0.9-0.4,2.2-0.8,10.2-2
					c0.2,0.6,0.3,1.2,0.4,1.8L339.7,298.8z M326.4,301.2c-0.4,2.7-1.1,5.4-2.2,7.9c1.2,0.3,2.4,0.7,3.5,1.2c1-2.7,1.8-5.5,2.2-8.4
					L326.4,301.2z M330.7,301.7c0.5,2.6,0.9,5.2,1,7.9l3.5-0.9c-0.2-2.6-0.7-5.2-1.2-7.8L330.7,301.7z M334.9,301
					c0.9,2.1,1.5,4.4,2.1,6.6l3.1-1.2c-0.6-2.2-1.3-4.4-2.2-6.4L334.9,301z M349.9,299.5c-1.7-2.7-3.8-5.2-6.3-7.3l-2.8,2.1
					c2.4,2.2,4.4,4.8,6,7.6L349.9,299.5z M344.9,284.4c0.6-1.8,1.2-3.6,1.6-5.4l-4.1-0.8c-1,4.7-2.8,9.5-5.2,12.5
					c1.3,0.7,2.4,1.5,3.6,2.3c1-1.5,1.9-3,2.7-4.7h8.3c-0.3,11.7-0.7,16.7-1.7,17.7c-0.4,0.4-0.9,0.6-1.5,0.6c-0.9,0-2.8,0-5-0.2
					c0.7,1.3,1.2,2.7,1.4,4.2c1.8,0.1,3.6,0.1,5.5-0.1c1.4-0.1,2.6-0.8,3.4-1.9c1.3-1.8,1.8-7.2,2.1-22.3c0-0.5,0-2,0-2L344.9,284.4
					L344.9,284.4z M370.9,305.9V304h10.6v1.9H370.9z M381.5,301h-10.6v-1.9h10.6V301z M380.4,294c0.4,0.6,0.8,1.2,1.2,1.7h-10.4
					c0.5-0.5,0.9-1.1,1.2-1.7H380.4z M392.2,294v-3.6h-17.6c0.3-0.5,0.5-1.1,0.7-1.6h13.9v-3.3h-12.6c0.1-0.5,0.3-1,0.4-1.5h13.3
					v-3.5h-12.5c0.1-0.6,0.2-1.3,0.3-1.9l-4.4-0.4c-0.1,0.7-0.2,1.5-0.3,2.3h-10.9v3.5h10.1c-0.2,0.5-0.3,1-0.5,1.5h-8.4v3.3h7
					c-0.3,0.6-0.6,1.1-0.9,1.6h-9.1v3.6h6.4c-2,2.2-4.5,4-7.2,5.4c1.2,0.9,2.1,2.1,2.8,3.4c1.4-0.7,2.7-1.6,3.9-2.6v10.6h4.3v-1.5
					h10.6v1.3h4.6v-10.5c1.3,1,2.6,1.8,4.1,2.5c0.8-1.3,1.7-2.4,2.8-3.4c-3-1.1-5.7-2.9-7.9-5.2L392.2,294L392.2,294z M414.4,300.4
					c2.5-1.1,4.9-2.5,7.2-4l-2.5-2.2l-0.9,0.2h-14.3c2.3-1.3,4.4-2.9,6.3-4.7v3.9h4.1v-3.9c4.1,2.4,8.1,5,11.8,8l2.7-2.9
					c-2.9-2.2-5.9-4.2-9.1-6h8.2v-3.5h-13.6v-2.5c3.5-0.3,6.9-0.8,10.3-1.6l-3.4-2.9c-5.1,1.2-14.2,1.8-22.2,2
					c0.5,1,0.8,2.2,0.9,3.3c3.3-0.1,6.8-0.2,10.3-0.4v2.2h-13.3v3.5h9.1c-3.1,2.3-6.5,4-10.2,5c1,1,1.8,2,2.6,3.1
					c1.6-0.6,3.1-1.2,4.5-2v2.7h10.2c-0.9,0.5-1.9,0.9-2.9,1.3v1.8h-13.5v3.6h13.5v2.4c0,0.5-0.2,0.6-0.8,0.6c-0.6,0-3.1,0-5.2-0.1
					c0.7,1.1,1.1,2.3,1.4,3.6c2.9,0,5.1,0,6.7-0.5s2.1-1.5,2.1-3.5v-2.5h13.4v-3.6h-13.4L414.4,300.4L414.4,300.4z M463.2,302.2
					v-3.5h-13.6c0.1-0.6,0.2-1.2,0.3-1.8h14.4v-3.6h-13.9v-1.9h10.7v-3.5h-10.7v-1.8h12.4v-3.7h-6.7c0.8-1,1.6-2.2,2.3-3.4l-4.5-1.2
					c-0.7,1.6-1.5,3.1-2.5,4.5h-7.7l1-0.5c-0.7-1.5-1.5-2.9-2.6-4.1l-3.7,1.5c0.7,1,1.4,2,2,3.1h-6.6v3.7h12.4v1.8h-10.4v3.5h10.4
					v1.9h-13.4v3.6h12.9c-0.1,0.6-0.2,1.3-0.3,1.8h-11.8v3.5H444c-1.6,2.3-4.9,3.9-12,4.9c0.9,1.1,1.6,2.4,2.1,3.7
					c9.3-1.5,13.1-4.3,14.8-8.6h1.3l-1.6,2.6c4.8,1.7,9.5,3.8,14,6.1l2-3.6c-4.1-2-8.3-3.7-12.6-5.1h11.2V302.2z M475.5,285.2V298
					h-2.9v-12.8H475.5z M479.3,302.1v-20.9h-10.5v23.7h3.8v-2.8L479.3,302.1L479.3,302.1z M500.2,295.7v-4h-8.3v-4.3h7.2v-4h-7.2v-5
					h-4.2v5h-6.4v4h6.4v4.3h-7.5v4h6.4c-1.9,4.1-5.1,7.5-9,9.8c1.1,1,2,2.1,2.8,3.3c3-2,5.5-4.6,7.3-7.7v9.8h4.2v-9.6
					c1.5,2.8,3.4,5.4,5.6,7.6c0.9-1.3,1.9-2.4,3.1-3.5c-3.3-2.6-5.9-5.9-7.7-9.7L500.2,295.7z"/>
			</g>
		</g>
		<g id="Group_7367" transform="translate(882 119.734)">
			<path id="Path_50730" class="st2" d="M270.3,244.3c0-74.6-60.5-135.1-135.1-135.1S0,169.7,0,244.3s60.5,135.1,135.1,135.1l0,0
				C209.8,379.5,270.3,319,270.3,244.3"/>
			<g>
				<g>
					<g id="Group_7365" transform="translate(0.304 49.403)">
						<path id="Path_50731" class="st3" d="M201.5,110c5.7-2.7,8.4,5.2,8.6,9.8c0.4,11.5-6,19.1-15.9,24.5c-9.8,5.4-16.1,1.9-13.8-9
							C182.3,126.5,193.3,113.8,201.5,110"/>
						<path id="Path_50732" class="st4" d="M60.7,116.7c0.1,0.1,0.1,0.2,0.2,0.2c0.1,0.1,0.2,0.2,0.4,0.4
							C61.1,117.1,60.9,116.9,60.7,116.7"/>
						<path id="Path_50733" class="st3" d="M65.6,132.1c0,0-10.8-6.7-12,1.8s1.7,21.3,1.6,33.6c-0.1,18.1-12.4,72.8-7.3,87.8
							c5.1,15,13.6,29.6,25.6,46.5s4.7,136.9,4.7,136.9l89.6-0.1l-14-116.7c11.7-24.2,25-29.6,24.6-56.8c0-1.4-65.2-44.2-65.2-44.2
							l-19.5-25.1c0,0-12.6-23.2-13.3-28.1S65.6,132.1,65.6,132.1"/>
						<path id="Path_50734" class="st5" d="M132.9,316.5c10.6,5.2,17.5,4.3,22.3,1.7c0.4-0.2,0.8-0.5,1.2-0.7 M108.2,225.8
							c0.1,0.3,12.2,26.7,2.8,47.1c-4.7,10.2-14,17.2-27.7,21"/>
						<path id="Path_50735" class="st5" d="M53.9,151.1c1.9-0.4,3.6-1.5,4.6-3.2c3.5-5.9-2.3-17.1-2.6-17.6"/>
						<path id="Path_50736" class="st6" d="M178.3,274.5l-88.5,0.2c-9.8,0-17.7-7.9-17.7-17.7l0,0L71.8,54.7
							c0-9.8,7.9-17.7,17.7-17.7l88.5-0.2c9.8,0,17.7,7.9,17.7,17.7l0,0l0.3,202.3C196,266.5,188.1,274.5,178.3,274.5"/>
						<path id="Path_50737" class="st7" d="M177.3,269.1l-86.5,0.2c-7.2,0-13.1-5.8-13.1-13l0,0L77.4,55.4c0-7.2,5.8-13.1,13-13.1
							l86.5-0.2c7.2,0,13.1,5.8,13.1,13l0,0l0.3,200.8C190.3,263.3,184.5,269.1,177.3,269.1"/>
						<path id="Path_50738" class="st3" d="M65.6,132.1c4.1,5.4,7.2,11.5,9.2,18c6.5,20.4-2.5,81.5-7.1,82.8L62.5,202L65.6,132.1z"
							/>
						<path id="Path_50739" class="st3" d="M179.7,247.1c-0.6,2.4-0.3,4.5,1.5,6c6.2,5.1,21.9-3.4,23.6-10.4
							c0.5-1.7,0.6-3.5,0.2-5.3c-2.1-8.1-8.5-11.3-12.2-7.8C190,232.1,181.4,240.6,179.7,247.1"/>
						<path id="Path_50740" class="st3" d="M196.4,195.9c4.2-2,10.3,3.5,11,7.8c1.8,12.5-7.3,20.5-18.3,26.6
							c-9.8,5.4-16.1,1.9-13.8-9C177.2,212.5,188.3,199.7,196.4,195.9"/>
						<path id="Path_50741" class="st3" d="M192.4,160.7c2.8-2.3,7.9-0.3,9.8,2.7c3.5,5.6,2.9,11.6,1.2,18.1
							c-1.4,5.6-5.5,10.4-9.6,14.3c-8.2,7.7-15.1,5.8-15.6-5.3C177.9,181.5,185.4,166.4,192.4,160.7"/>
						<path id="Path_50742" class="st2" d="M106.2,202.1c0.1-0.8-0.5-1.6-1.3-1.7c-0.1,0-0.1,0-0.2,0c-0.7,0-1.4,0.6-1.4,1.7
							s0.7,1.7,1.4,1.7C105.5,203.8,106.2,203.1,106.2,202.1L106.2,202.1 M101.8,202.1c0.1-1.6,1.4-2.9,3-2.8s2.9,1.4,2.8,3
							s-1.4,2.8-2.9,2.8c-1.6,0-2.9-1.3-2.9-2.9C101.8,202.2,101.8,202.1,101.8,202.1"/>
						<path id="Path_50743" class="st2" d="M110.7,202h0.7c0.7,0,1-0.3,1-0.9s-0.4-0.8-1-0.8h-0.7V202z M111.2,203h-0.5v2h-1.4v-5.8
							h2.3c1.4,0,2.2,0.6,2.2,1.8c0.1,0.8-0.5,1.6-1.3,1.8l1.4,2.1h-1.6L111.2,203z"/>
						<path id="Path_50744" class="st2" d="M119.1,202.1c0-1.2-0.7-1.7-1.5-1.7H117v3.4h0.6C118.5,203.8,119.1,203.3,119.1,202.1
							 M117.7,199.2c1.6-0.1,3,1.1,3.1,2.7c0.1,1.6-1.1,3-2.7,3.1c-0.1,0-0.2,0-0.3,0h-2.1v-5.8H117.7z"/>
						<path id="Path_50745" class="st2" d="M123.7,200.3v1.1h1.7v1.1h-1.7v1.3h2v1.2h-3.4v-5.8h3.4v1.2L123.7,200.3z"/>
						<path id="Path_50746" class="st2" d="M128.8,202h0.7c0.7,0,1-0.3,1-0.9s-0.4-0.8-1-0.8h-0.7V202z M129.3,203h-0.5v2h-1.4v-5.8
							h2.3c1.4,0,2.2,0.6,2.2,1.8c0.1,0.8-0.5,1.6-1.3,1.8l1.4,2.1h-1.6L129.3,203z"/>
						<path id="Path_50747" class="st2" d="M138.9,202.7l-0.7-2l-0.7,2H138.9z M139.2,203.7h-1.9l-0.4,1.3h-1.4l2-5.8h1.6l2,5.8
							h-1.5L139.2,203.7z"/>
						<path id="Path_50748" class="st2" d="M147.4,199.1v5.8H146v-2.4h-2v2.4h-1.4v-5.8h1.4v2.3h2v-2.3H147.4z"/>
						<path id="Path_50749" class="st2" d="M150.8,200.3v1.1h1.7v1.1h-1.7v1.3h2v1.2h-3.4v-5.8h3.4v1.2L150.8,200.3z"/>
						<path id="Path_50750" class="st2" d="M157.4,202.7l-0.7-2l-0.7,2H157.4z M157.7,203.6h-1.9l-0.4,1.3H154l2-5.8h1.6l2,5.8h-1.5
							L157.7,203.6z"/>
						<path id="Path_50751" class="st2" d="M164.5,202c0-1.2-0.7-1.7-1.5-1.7h-0.6v3.4h0.6C163.9,203.7,164.5,203.2,164.5,202
							 M163.1,199.1c1.6-0.1,3,1.1,3.1,2.7c0.1,1.6-1.1,3-2.7,3.1c-0.1,0-0.2,0-0.3,0H161v-5.8H163.1z"/>
						<path id="Path_50752" class="st2" d="M111.6,213c0.1-0.8-0.5-1.6-1.3-1.7c-0.1,0-0.1,0-0.2,0c-0.7,0-1.4,0.6-1.4,1.7
							s0.7,1.7,1.4,1.7C110.9,214.7,111.6,214,111.6,213C111.6,213.1,111.6,213,111.6,213 M107.2,213c0.1-1.6,1.4-2.9,3-2.8
							c1.6,0.1,2.9,1.4,2.8,3s-1.4,2.8-2.9,2.8c-1.6,0-2.9-1.3-2.9-2.9V213"/>
						<path id="Path_50753" class="st2" d="M119.6,210v5.8h-1.4l-2.2-3.6v3.6h-1.2V210h1.4l2.2,3.2V210H119.6z"/>
						<path id="Path_50754" class="st2" d="M127.7,211.2h-1.4v4.6h-1.4v-4.6h-1.4V210h4.2L127.7,211.2z"/>
						<path id="Path_50755" class="st2" d="M134.2,210v5.8h-1.4v-2.4h-2v2.4h-1.4V210h1.4v2.3h2V210H134.2z"/>
						<path id="Path_50756" class="st2" d="M137.6,211.2v1.1h1.7v1.1h-1.7v1.3h2v1.2h-3.4v-5.8h3.4v1.2L137.6,211.2z"/>
						<path id="Path_50757" class="st2" d="M146.5,213.6l-0.7-2l-0.7,2H146.5z M146.8,214.5h-1.9l-0.4,1.3h-1.4l2-5.8h1.6l2,5.8
							h-1.5L146.8,214.5z"/>
						<path id="Path_50758" class="st2" d="M153.1,212.1c0-0.6-0.4-0.9-1-0.9h-0.5v1.9h0.5c0.5,0.1,1-0.3,1-0.8
							C153.1,212.2,153.1,212.2,153.1,212.1 M154.6,212c0.1,1.1-0.8,2.1-1.9,2.2c-0.1,0-0.2,0-0.3,0h-0.8v1.6h-1.4V210h2.2
							C153.8,210,154.6,210.7,154.6,212"/>
						<path id="Path_50759" class="st2" d="M159.2,212.1c0-0.6-0.4-0.9-1-0.9h-0.5v1.9h0.5c0.5,0.1,1-0.3,1-0.8
							C159.2,212.2,159.2,212.2,159.2,212.1 M160.6,212c0.1,1.1-0.8,2.1-1.9,2.2c-0.1,0-0.2,0-0.3,0h-0.8v1.6h-1.4V210h2.2
							C159.8,210,160.6,210.7,160.6,212"/>
						<path id="Path_50760" class="st8" d="M176.8,135.2c-0.2,23.7-19.6,42.8-43.4,42.6c-23.7-0.2-42.8-19.6-42.6-43.4
							c0.2-23.7,19.6-42.8,43.4-42.6S177,111.4,176.8,135.2L176.8,135.2"/>
						<path id="Path_50761" class="st6" d="M113,179.5c0,0,2.3,3.6,20.9,3.8c17.1,0.2,19.2-3.4,19.2-3.4l9.3-78.6
							c0,0-6.7-2.3-28.6-2.5s-28.4,2.1-28.4,2.1L113,179.5z"/>
						<path id="Path_50762" class="st6" d="M165.3,102.9l-0.2-5.1c-0.4-0.9-3.7-2.2-3.7-2.2l-0.7-6c0,0,0.7-5.2-26.7-5.4h0
							c-27.4-0.2-26.8,5-26.8,5l-0.8,6c-1.4,0.3-2.7,1-3.7,2.1l-0.3,4.7c0,0-0.3,2.2,7.2,3c8.5,0.9,25.1,0.5,25.1,0.5v-0.2
							c2.9,0.2,15.9,0.8,23.4,0.1C165.4,104.8,165.3,102.9,165.3,102.9"/>
						<path id="Path_50763" class="st9" d="M162.5,100.9c-6-2.2-28.7-2.3-28.7-2.3s-22.7-0.2-28.7,1.8s0.6,3.6,0.6,3.6l-0.2-2.1
							c6.1-3.2,28.3-2.8,28.3-2.8s22.3-0.1,28.4,3.2l-0.2,2.1C162.1,104.6,168.5,103.1,162.5,100.9"/>
						<path id="Path_50764" class="st10" d="M133.8,98.6c-23.5-0.2-28.4,1.8-28.4,1.8l0.2,1.6c6.1-3.2,28.3-2.8,28.3-2.8
							s22.3,0,28.4,3.3l0.2-1.7C162.4,100.9,157.6,98.8,133.8,98.6"/>
						<path id="Path_50765" class="st11" d="M150.6,134.9c-0.1,9.4-7.7,16.9-17.1,16.8c-9.4-0.1-16.9-7.7-16.8-17.1
							s7.7-16.9,17.1-16.8C143.2,117.9,150.7,125.6,150.6,134.9L150.6,134.9"/>
						<path id="Path_50766" class="st5" d="M189.5,199c-6.2,3.5-10.9,0.6-11.3-8.6c-0.3-6.7,3.9-16.9,9-23.9 M189.1,230.3
							c-9.8,5.4-16.1,1.9-13.8-9c1.3-6.3,7.5-14.8,14-20.4c2.1-2,4.5-3.6,7.1-4.9 M179.7,247.1c-0.6,2.4-0.3,4.5,1.5,6
							c2.1,1.7,5.1,1.9,8.4,1.1 M189.8,232.4c-3.7,3.7-8.9,9.8-10.2,14.7"/>
						<path id="Path_50767" class="st8" d="M200.8,36.5C200.7,36.4,200.7,36.4,200.8,36.5c-0.9-1.3-2-2.3-3.2-3
							c-3.6-2.1-7.5-1.1-11.1,0.5c-0.4,0.2-0.8,0.4-1.2,0.6c-0.3-0.3-0.5-0.7-0.8-1c-2-2.5-4.6-4.6-7.9-5.1c-2-0.3-4,0.1-5.7,1
							c-2,1.1-3.5,3-3.9,5.3c-0.1,0.6-0.2,1.2-0.3,1.8c-0.1,1.6,0,3.1,0.3,4.6c0.1,0.3,0.1,0.6,0.2,0.9c0.5,2.1,1.3,4.2,2.2,6.1
							c0.5,1,0.9,1.9,1.4,2.9c0,0.1,0.1,0.1,0.1,0.2c0.3,0.6,0.6,1.1,0.9,1.7c0.1,0.2,0.3,0.5,0.4,0.7c1.4,2.6,2.9,5.1,4.3,7.6
							c0.8,1.5,3,1.3,5.4,0.5c3.2-1.2,6.3-2.7,9.1-4.7c0.8-0.6,1.5-1.2,2.3-1.9c0.7-0.7,1.5-1.4,2.2-2.2c1.4-1.6,2.7-3.3,3.8-5.1
							C201.8,44.1,202.9,39.8,200.8,36.5"/>
						<path id="Path_50768" class="st8" d="M226.2,5.5c-0.5,0.7-1,1.5-1.3,2.3c-0.2,0.4-0.4,0.8-0.5,1.2s-0.2,0.8-0.3,1.2
							c-0.3,1.4-0.4,2.8-0.3,4.2c0.1,1,0.4,1.9,1.1,2c1.2,0.1,2.4,0.3,3.6,0.4c0.1,0,0.2,0,0.3,0c0.3,0,0.5,0,0.8,0.1h0.1
							c0.4,0,0.9,0.1,1.3,0.1c0.9,0,1.8,0,2.7-0.1c0.1,0,0.2,0,0.4-0.1c0.6-0.1,1.2-0.3,1.8-0.6c0.2-0.1,0.4-0.2,0.6-0.4
							c0.8-0.5,1.3-1.4,1.4-2.4c0.1-0.8-0.1-1.6-0.5-2.3c-0.7-1.1-1.9-1.9-3.2-2.2c-0.2,0-0.3-0.1-0.5-0.1c0-0.2,0-0.4,0-0.5
							c0-1.6-0.2-3.3-1.6-4.3c-0.5-0.4-1-0.6-1.6-0.7l0,0C228.8,2.8,227.3,4,226.2,5.5"/>
						<path id="Path_50769" class="st7" d="M229.9,38.3l1.3-11.7c0-0.3-0.2-0.5-0.4-0.5c-0.1,0-0.3,0-0.4,0.1l-8.5,9.2
							c-0.1,0.2-0.4,0.2-0.6,0.1l-10-4.9c-0.2-0.1-0.5,0-0.6,0.2c-0.1,0.1-0.1,0.3,0,0.4l5.9,10.8c0.1,0.2,0.1,0.4-0.1,0.6l-8.3,8.5
							c-0.2,0.2-0.2,0.5,0,0.7c0.1,0.1,0.3,0.2,0.4,0.1l11.3-2.6c0.2,0,0.4,0,0.5,0.2l6,10.1c0.1,0.2,0.4,0.3,0.6,0.2
							c0.1-0.1,0.2-0.2,0.2-0.3l1.8-11.7c0-0.2,0.2-0.3,0.3-0.4l10.5-2.8c0.3-0.1,0.4-0.3,0.3-0.6c0-0.1-0.1-0.2-0.2-0.3l-9.9-4.9
							C230,38.7,229.9,38.5,229.9,38.3"/>
						<path id="Path_50770" class="st7" d="M206.9,12.2l-2.1-4.5c-0.1-0.1-0.2-0.1-0.3-0.1s-0.1,0.1-0.1,0.1l-1,5.1
							c0,0.1-0.1,0.1-0.2,0.2l-4.6,0.4c-0.1,0-0.2,0.1-0.2,0.2c0,0.1,0,0.1,0.1,0.1l4.4,2.6c0.1,0,0.1,0.1,0.1,0.2l-1.1,4.8
							c0,0.1,0.1,0.2,0.2,0.2c0.1,0,0.1,0,0.2,0l3.5-3.4c0.1-0.1,0.2-0.1,0.2,0l4.3,2.3c0.1,0,0.2,0,0.3-0.1c0,0,0-0.1,0-0.2
							l-1.9-4.5c0-0.1,0-0.2,0-0.2l3.1-3.3c0.1-0.1,0.1-0.2,0-0.3l-0.1-0.1l-4.6,0.4C207,12.3,207,12.3,206.9,12.2"/>
					</g>
				</g>
			</g>
		</g>
	</g>
</g>
</svg>
